<svg xmlns="http://www.w3.org/2000/svg" viewBox="0 0 80 112">
  <defs><linearGradient id="ivory" x2="1" y2="1"><stop stop-color="#fffef5"/><stop offset="1" stop-color="#e8e1cf"/></linearGradient></defs>
  <path d="M12 8h60l6 7v84l-8 10H12z" fill="#08763d"/>
  <path d="M9 5h61l4 5v90l-7 7H9L3 101V17z" fill="url(#ivory)" stroke="#101713" stroke-width="4" stroke-linejoin="round"/>
  <path d="M10 12h56" stroke="#fff" stroke-width="2" opacity=".8"/>
  <text x="12" y="28" fill="#2463ad" font-family="Arial,sans-serif" font-size="20" font-weight="700">2</text>
  <text x="47" y="34" fill="#2463ad" font-family="serif" font-size="25" font-weight="700">蘭</text>
  <path d="M39 97q-5-28 1-48M37 96Q20 75 19 53M42 96q15-23 18-43M39 82Q26 66 29 45M43 79q11-16 9-32" fill="none" stroke="#25864d" stroke-width="3" stroke-linecap="round"/>
  <g fill="#e65c62" stroke="#bd3846" stroke-width="1.2">
    <path d="M39 54q-12-12-18-1 7 9 18 4-5 11 5 15 8-8 1-17 11 6 17-3-6-11-18 1z"/>
    <path d="M28 46q-8-9-13-1 5 7 13 3-3 8 4 10 6-6 1-12 8 4 12-3-5-7-13 1z"/>
  </g>
  <circle cx="41" cy="55" r="3" fill="#efbd36"/>
</svg>
