<svg xmlns="http://www.w3.org/2000/svg" viewBox="0 0 80 112">
  <defs><linearGradient id="ivory" x2="1" y2="1"><stop stop-color="#fffef5"/><stop offset="1" stop-color="#e8e1cf"/></linearGradient></defs>
  <path d="M12 8h60l6 7v84l-8 10H12z" fill="#08763d"/>
  <path d="M9 5h61l4 5v90l-7 7H9L3 101V17z" fill="url(#ivory)" stroke="#101713" stroke-width="4" stroke-linejoin="round"/>
  <path d="M10 12h56" stroke="#fff" stroke-width="2" opacity=".8"/>
  <text x="12" y="28" fill="#2463ad" font-family="Arial,sans-serif" font-size="20" font-weight="700">3</text>
  <text x="47" y="34" fill="#2463ad" font-family="serif" font-size="25" font-weight="700">菊</text>
  <path d="M40 97V75M39 88q-11-9-20-2 9 9 20 2M42 85q10-9 19-2-8 9-19 2" fill="none" stroke="#23824a" stroke-width="3" stroke-linecap="round"/>
  <g transform="translate(40 61)" fill="#f1aa1f" stroke="#d77a18" stroke-width="1.3">
    <ellipse rx="4" ry="19"/><ellipse rx="4" ry="19" transform="rotate(22.5)"/><ellipse rx="4" ry="19" transform="rotate(45)"/><ellipse rx="4" ry="19" transform="rotate(67.5)"/><ellipse rx="4" ry="19" transform="rotate(90)"/><ellipse rx="4" ry="19" transform="rotate(112.5)"/><ellipse rx="4" ry="19" transform="rotate(135)"/><ellipse rx="4" ry="19" transform="rotate(157.5)"/>
  </g>
  <circle cx="40" cy="61" r="7" fill="#de5a2b" stroke="#b83c27" stroke-width="1.5"/>
</svg>
