<svg xmlns="http://www.w3.org/2000/svg" viewBox="0 0 80 112">
  <defs>
    <linearGradient id="ivory" x1="0" y1="0" x2="1" y2="1">
      <stop stop-color="#fffef5"/>
      <stop offset="1" stop-color="#e8e1cf"/>
    </linearGradient>
  </defs>
  <path d="M12 8h60l6 7v84l-8 10H12z" fill="#08763d"/>
  <path d="M9 5h61l4 5v90l-7 7H9L3 101V17z" fill="url(#ivory)" stroke="#101713" stroke-width="4" stroke-linejoin="round"/>
  <path d="M10 12h56" stroke="#fff" stroke-width="2" opacity=".8"/>
  <text x="12" y="28" fill="#2463ad" font-family="Arial,sans-serif" font-size="20" font-weight="700">1</text>
  <text x="47" y="34" fill="#d8482f" font-family="serif" font-size="25" font-weight="700">春</text>
  <path d="M38 96c1-22 2-36 8-52M39 72c-10-10-19-7-21 1 8 6 15 4 21-1M42 62c8-10 17-9 20-2-6 7-13 8-20 2" fill="none" stroke="#23854a" stroke-width="3" stroke-linecap="round"/>
  <g fill="#e6423b" stroke="#b8282b" stroke-width="1">
    <circle cx="29" cy="55" r="5"/><circle cx="22" cy="60" r="5"/><circle cx="36" cy="60" r="5"/><circle cx="25" cy="68" r="5"/><circle cx="33" cy="68" r="5"/>
  </g>
  <circle cx="29" cy="62" r="3" fill="#f1b633"/>
  <path d="M48 82q8-10 15-1-8 8-15 1M47 84q-8-8-13 1 8 5 13-1" fill="#3b9f55"/>
  <path d="M18 45q5-7 10 0M18 45q5 7 10 0" fill="none" stroke="#2463ad" stroke-width="2"/>
</svg>
